<svg xmlns="http://www.w3.org/2000/svg" viewBox="0 0 512 512" width="512" height="512">
  <!-- Maskable: the sky runs to the edges, only the mountain sits inside the
       safe zone, so whatever shape a launcher masks it to still looks whole. -->
  <defs>
    <linearGradient id="bg" x1="0" y1="1" x2="0.2" y2="0">
      <stop offset="0" stop-color="#0D1410"/>
      <stop offset="0.55" stop-color="#152530"/>
      <stop offset="1" stop-color="#2E5670"/>
    </linearGradient>
  </defs>
  <rect width="512" height="512" fill="url(#bg)"/>
  <g transform="translate(256 272) scale(0.62) translate(-256 -256)">
    <path d="M-160 392 L96 300 L150 344 L246 214 L318 300 L392 236 L672 350 L672 700 L-160 700 Z" fill="#16303F" opacity="0.85"/>
    <path d="M60 700 L246 214 L432 700 Z" fill="#20404F"/>
    <path d="M246 214 L300 300 L268 292 L240 320 L214 288 L192 300 Z" fill="#EAF1F5"/>
    <g fill="#EAF1F5">
      <ellipse cx="246" cy="196" rx="34" ry="15"/>
      <ellipse cx="246" cy="171" rx="25" ry="13"/>
      <ellipse cx="246" cy="150" rx="15" ry="10"/>
    </g>
    <path d="M118 470 C 190 452, 176 400, 236 392 C 300 384, 288 336, 246 300"
          fill="none" stroke="#D9B15C" stroke-width="17" stroke-linecap="round" stroke-dasharray="42 30"/>
    <circle cx="118" cy="470" r="21" fill="#D08A5E"/>
  </g>
</svg>
